<svg xmlns="http://www.w3.org/2000/svg" xmlns:xlink="http://www.w3.org/1999/xlink" version="1.1" width="256" height="256" viewBox="0 0 256 256" xml:space="preserve">

<defs>
</defs>
<g style="stroke: none; stroke-width: 0; stroke-dasharray: none; stroke-linecap: butt; stroke-linejoin: miter; stroke-miterlimit: 10; fill: none; fill-rule: nonzero; opacity: 1;" transform="translate(45.02412451361867 45.024124513618645) scale(1.83 1.83)" >
	<path d="M 39.509 75.607 L 39.509 75.607 c -0.265 0 -0.52 -0.105 -0.707 -0.293 L 14.687 51.198 c -0.391 -0.391 -0.391 -1.023 0 -1.414 l 26.749 -26.748 c 7.619 -7.619 17.073 -13.374 27.339 -16.643 l 19.922 -6.345 c 0.355 -0.114 0.746 -0.019 1.011 0.246 s 0.359 0.654 0.246 1.01 l -6.345 19.922 c -3.269 10.266 -9.024 19.72 -16.643 27.34 L 40.216 75.314 C 40.028 75.501 39.774 75.607 39.509 75.607 z M 16.808 50.491 l 22.701 22.702 l 26.042 -26.042 c 7.393 -7.395 12.978 -16.57 16.151 -26.532 L 87.46 2.54 L 69.382 8.297 C 59.418 11.47 50.243 17.056 42.85 24.45 L 16.808 50.491 z" style="stroke: none; stroke-width: 1; stroke-dasharray: none; stroke-linecap: butt; stroke-linejoin: miter; stroke-miterlimit: 10; fill: rgb(255,255,255); fill-rule: nonzero; opacity: 1;" transform=" matrix(1 0 0 1 0 0) " stroke-linecap="round" />
	<path d="M 41.939 90 c -0.26 0 -0.522 -0.045 -0.779 -0.138 c -0.833 -0.303 -1.399 -1.039 -1.478 -1.923 l -1.17 -13.245 c -0.026 -0.295 0.08 -0.586 0.289 -0.795 l 19.937 -19.937 c 0.274 -0.275 0.684 -0.367 1.049 -0.232 c 0.365 0.132 0.62 0.465 0.654 0.852 c 0.921 10.415 -2.792 20.631 -10.186 28.026 l -6.729 6.728 C 43.093 89.771 42.524 90 41.939 90 z M 40.546 74.984 l 1.129 12.78 c 0.012 0.134 0.098 0.192 0.168 0.218 c 0.069 0.026 0.173 0.036 0.269 -0.06 l 6.729 -6.728 c 6.453 -6.454 9.933 -15.184 9.73 -24.236 L 40.546 74.984 z" style="stroke: none; stroke-width: 1; stroke-dasharray: none; stroke-linecap: butt; stroke-linejoin: miter; stroke-miterlimit: 10; fill: rgb(255,255,255); fill-rule: nonzero; opacity: 1;" transform=" matrix(1 0 0 1 0 0) " stroke-linecap="round" />
	<path d="M 15.394 51.491 c -0.029 0 -0.059 -0.001 -0.088 -0.004 L 2.06 50.317 c -0.883 -0.078 -1.619 -0.644 -1.922 -1.477 s -0.102 -1.739 0.525 -2.366 l 6.729 -6.729 c 7.394 -7.395 17.606 -11.109 28.026 -10.187 c 0.387 0.034 0.719 0.29 0.852 0.654 c 0.133 0.365 0.042 0.774 -0.233 1.049 L 16.101 51.198 C 15.912 51.386 15.658 51.491 15.394 51.491 z M 32.292 31.42 c -8.783 0 -17.21 3.464 -23.486 9.739 l -6.729 6.729 c -0.095 0.096 -0.085 0.199 -0.06 0.269 c 0.025 0.07 0.084 0.156 0.218 0.168 l 12.781 1.129 l 18.025 -18.026 C 32.792 31.423 32.542 31.42 32.292 31.42 z" style="stroke: none; stroke-width: 1; stroke-dasharray: none; stroke-linecap: butt; stroke-linejoin: miter; stroke-miterlimit: 10; fill: rgb(255,255,255); fill-rule: nonzero; opacity: 1;" transform=" matrix(1 0 0 1 0 0) " stroke-linecap="round" />
	<path d="M 29.945 78.335 c -0.917 0 -1.79 -0.359 -2.453 -1.022 L 12.687 62.507 c -0.786 -0.786 -1.145 -1.867 -0.984 -2.968 c 0.161 -1.1 0.813 -2.033 1.791 -2.562 l 5.705 -3.085 c 0.39 -0.211 0.87 -0.141 1.183 0.173 l 15.554 15.554 c 0.313 0.313 0.383 0.794 0.172 1.183 l -3.085 5.705 c -0.529 0.979 -1.463 1.631 -2.563 1.792 C 30.287 78.322 30.115 78.335 29.945 78.335 z M 19.494 56.006 l -5.05 2.73 c -0.416 0.225 -0.695 0.623 -0.763 1.092 c -0.068 0.469 0.084 0.93 0.419 1.265 l 14.806 14.805 h 0 c 0.334 0.335 0.795 0.488 1.264 0.42 c 0.469 -0.068 0.867 -0.347 1.092 -0.764 l 2.73 -5.05 L 19.494 56.006 z" style="stroke: none; stroke-width: 1; stroke-dasharray: none; stroke-linecap: butt; stroke-linejoin: miter; stroke-miterlimit: 10; fill: rgb(255,255,255); fill-rule: nonzero; opacity: 1;" transform=" matrix(1 0 0 1 0 0) " stroke-linecap="round" />
	<path d="M 62.857 35.066 c -2.116 0 -4.105 -0.824 -5.601 -2.321 c -1.497 -1.496 -2.321 -3.486 -2.321 -5.602 s 0.824 -4.106 2.321 -5.602 c 1.496 -1.497 3.485 -2.321 5.601 -2.321 c 2.117 0 4.106 0.824 5.602 2.321 c 1.497 1.496 2.321 3.486 2.321 5.602 s -0.824 4.106 -2.321 5.602 l 0 0 l 0 0 C 66.963 34.242 64.974 35.066 62.857 35.066 z M 62.857 21.22 c -1.582 0 -3.069 0.616 -4.187 1.735 c -1.119 1.119 -1.735 2.606 -1.735 4.188 s 0.616 3.07 1.735 4.188 c 1.118 1.119 2.605 1.735 4.187 1.735 c 1.583 0 3.07 -0.616 4.188 -1.735 l 0 0 c 1.119 -1.119 1.735 -2.606 1.735 -4.188 s -0.616 -3.07 -1.735 -4.188 C 65.927 21.836 64.44 21.22 62.857 21.22 z" style="stroke: none; stroke-width: 1; stroke-dasharray: none; stroke-linecap: butt; stroke-linejoin: miter; stroke-miterlimit: 10; fill: rgb(255,255,255); fill-rule: nonzero; opacity: 1;" transform=" matrix(1 0 0 1 0 0) " stroke-linecap="round" />
	<path d="M 39.652 66.471 c -0.256 0 -0.512 -0.098 -0.707 -0.293 L 23.822 51.055 c -0.391 -0.391 -0.391 -1.023 0 -1.414 c 0.391 -0.391 1.023 -0.391 1.414 0 l 15.122 15.123 c 0.391 0.391 0.391 1.023 0 1.414 C 40.164 66.373 39.908 66.471 39.652 66.471 z" style="stroke: none; stroke-width: 1; stroke-dasharray: none; stroke-linecap: butt; stroke-linejoin: miter; stroke-miterlimit: 10; fill: rgb(255,255,255); fill-rule: nonzero; opacity: 1;" transform=" matrix(1 0 0 1 0 0) " stroke-linecap="round" />
	<path d="M 43.249 62.873 c -0.256 0 -0.512 -0.098 -0.707 -0.293 L 27.42 47.459 c -0.391 -0.391 -0.391 -1.023 0 -1.414 c 0.391 -0.391 1.023 -0.391 1.414 0 l 15.122 15.122 c 0.391 0.391 0.391 1.023 0 1.414 C 43.761 62.776 43.505 62.873 43.249 62.873 z" style="stroke: none; stroke-width: 1; stroke-dasharray: none; stroke-linecap: butt; stroke-linejoin: miter; stroke-miterlimit: 10; fill: rgb(255,255,255); fill-rule: nonzero; opacity: 1;" transform=" matrix(1 0 0 1 0 0) " stroke-linecap="round" />
	<path d="M 2.862 88.138 c -0.265 0 -0.52 -0.105 -0.707 -0.293 c -0.192 -0.192 -0.298 -0.454 -0.293 -0.726 c 0.11 -5.851 4.583 -21.984 14.01 -23.651 c 0.545 -0.102 1.062 0.267 1.159 0.811 c 0.096 0.544 -0.267 1.062 -0.811 1.158 C 8.885 66.735 4.5 79.806 3.925 86.075 c 6.269 -0.575 19.341 -4.961 20.637 -12.296 c 0.096 -0.544 0.617 -0.909 1.159 -0.811 c 0.544 0.096 0.907 0.614 0.811 1.158 c -1.666 9.427 -17.8 13.901 -23.651 14.011 C 2.875 88.138 2.869 88.138 2.862 88.138 z" style="stroke: none; stroke-width: 1; stroke-dasharray: none; stroke-linecap: butt; stroke-linejoin: miter; stroke-miterlimit: 10; fill: rgb(255,255,255); fill-rule: nonzero; opacity: 1;" transform=" matrix(1 0 0 1 0 0) " stroke-linecap="round" />
</g>
</svg>